<svg width="152" height="32" viewBox="0 0 152 32" fill="none" xmlns="http://www.w3.org/2000/svg">
<path d="M135.886 10.3831H127.123V5.62061H150.7V10.3831H141.937V26.1006H135.886V10.3831Z" fill="#CCE2FF"/>
<path d="M118.237 5.62061H124.289V26.1006H118.237V5.62061Z" fill="#CCE2FF"/>
<path d="M111.897 15.5964C114.123 16.2114 115.679 17.6988 115.679 20.5591C115.679 24.8782 112.296 26.48 107.229 26.48H93V6H106.858C111.568 6 114.865 7.11553 114.865 11.2487C114.865 13.5656 113.609 14.9815 111.897 15.5964ZM106.002 10.4478H98.9516V14.1234H106.316C107.872 14.1234 108.757 13.68 108.757 12.2784C108.757 10.7768 107.715 10.4478 106.002 10.4478ZM106.673 22.0322C108.457 22.0322 109.57 21.6603 109.57 20.0729C109.57 18.5712 108.557 18.1135 106.844 18.1135H98.9516V22.0322H106.673Z" fill="#CCE2FF"/>
<path d="M83.7894 26.1006L81.9483 22.0961H71.2298L69.3887 26.1006H63.1089L73.1138 5.62061H80.307L90.3262 26.1006H83.7894ZM73.2137 17.8199H79.9645L76.5962 10.4975L73.2137 17.8199Z" fill="#CCE2FF"/>
<path d="M57.7387 15.6747C59.8082 16.2754 61.1069 17.8342 61.1069 20.5087V26.1006H55.0555V20.7804C55.0555 18.9641 54.1563 18.2061 52.201 18.2061H44.5368V26.1006H38.4854V5.62061H52.7291C57.3391 5.62061 60.8786 6.77904 60.8786 11.1697C60.8786 13.7011 59.5941 15.1026 57.7387 15.6747ZM52.1154 13.9156C53.7567 13.9156 54.7415 13.558 54.7415 12.0421C54.7415 10.4689 53.6854 10.1685 51.9441 10.1685H44.5368V13.9156H52.1154Z" fill="#CCE2FF"/>
<path fill-rule="evenodd" clip-rule="evenodd" d="M15.2379 0L10.8705 9.85217L15.2379 14.2303V0ZM16.703 0L16.7046 14.2275L21.0704 9.85098L16.703 0ZM9.83516 10.8891L0 15.2673H14.2042L9.83516 10.8891ZM22.1063 10.8891L17.7372 15.2673H31.9414L22.1063 10.8891ZM0 16.7327L9.83516 21.1108L14.2042 16.7327H0ZM17.7372 16.7327L22.1063 21.1092L31.9414 16.7327H17.7372ZM15.2382 17.7697L10.8708 22.1478L15.2382 32V17.7697ZM16.7033 17.7697V31.9972L21.0708 22.1466L16.7033 17.7697Z" fill="#CCE2FF"/>
<path fill-rule="evenodd" clip-rule="evenodd" d="M16.7031 0L16.7047 14.2275L21.0705 9.85098L16.7031 0ZM22.1063 10.8891L17.7373 15.2673H31.9415L22.1063 10.8891ZM17.7373 16.7327L22.1063 21.1092L31.9415 16.7327H17.7373ZM16.7034 17.7697V31.9972L21.0708 22.1466L16.7034 17.7697Z" fill="url(#paint0_linear_6671_17906)"/>
<defs>
<linearGradient id="paint0_linear_6671_17906" x1="15.9" y1="10.2894" x2="15.9273" y2="22.3864" gradientUnits="userSpaceOnUse">
<stop offset="0.110577" stop-color="#FE7109"/>
<stop offset="1" stop-color="#A1371E"/>
</linearGradient>
</defs>
</svg>
