<svg width="64" height="64" viewBox="0 0 64 64" fill="none" xmlns="http://www.w3.org/2000/svg">
<rect width="64" height="64" rx="16" fill="#2775CA"/>
<path d="M32 8C18.7452 8 8 18.7452 8 32C8 45.2548 18.7452 56 32 56C45.2548 56 56 45.2548 56 32C56 18.7452 45.2548 8 32 8Z" fill="white"/>
<path d="M36 24C36 22.3431 34.6569 21 33 21H21V27H33C34.6569 27 36 25.6569 36 24Z" fill="#2775CA"/>
<path d="M33 37H21V43H33C34.6569 43 36 41.6569 36 40C36 38.3431 34.6569 37 33 37Z" fill="#2775CA"/>
<path d="M43 30C43 27.7909 41.2091 26 39 26H37C34.7909 26 33 27.7909 33 30C33 32.2091 34.7909 34 37 34H39C41.2091 34 43 32.2091 43 30Z" fill="#2775CA"/>
</svg>