<svg width="800" height="800" viewBox="0 0 800 800" fill="none" xmlns="http://www.w3.org/2000/svg">
<rect width="800" height="800" fill="#FFEF46"/>
<path d="M195 558.869L216.829 582.205L252.063 549.951L427.263 612C536.44 539.524 595 490.361 595 429.81C595 389.587 571.171 367.258 518.566 349.879L478.874 336.468L587.549 232.196L565.72 208.861L533.469 237.147L381.103 187C333.96 202.378 274.394 247.597 274.394 292.758C274.352 297.952 275.025 303.126 276.394 308.136C237.194 330.477 221.286 351.343 221.286 377.148C221.286 401.478 234.189 425.82 275.389 439.197L308.143 450.127L195 558.869ZM271.434 351.32C271.434 341.899 276.394 332.947 284.84 325.492C293.766 338.4 309.16 349.822 333.48 357.745L386.051 375.124L356.76 403.422L305.16 386.546C281.331 378.543 271.411 366.675 271.411 351.297M314.074 495.357L347.823 463.092L411.343 483.935C444.589 494.854 455.994 509.26 452.486 545.492L314.074 495.357ZM323 243.092L471.914 292.736L439.674 323.525L362.246 297.743C335.457 288.814 326.509 274.408 323.046 244.121L323 243.092ZM396.406 416.307L425.743 388.067L480.337 405.937C516.074 417.793 533.949 439.642 533.949 470.387C533.949 493.722 525.023 509.111 507.16 528.983L501.697 534.939L503.686 521.025C511.64 470.387 496.714 448.595 447.571 432.657L396.509 416.307H396.406Z" fill="#02050A"/>
</svg>
